<mxfile host="app.diagrams.net" modified="2021-11-09T17:45:14.088Z" agent="5.0 (Windows NT 10.0; Win64; x64) AppleWebKit/537.36 (KHTML, like Gecko) Chrome/95.0.4638.69 Safari/537.36" etag="ELG7C4-t8WP59-G5qVSh" version="15.3.2" type="github">
  <diagram id="6a731a19-8d31-9384-78a2-239565b7b9f0" name="Page-1">
    <mxGraphModel dx="2642" dy="1362" grid="1" gridSize="10" guides="1" tooltips="1" connect="1" arrows="1" fold="1" page="1" pageScale="1" pageWidth="1169" pageHeight="827" background="none" math="0" shadow="0">
      <root>
        <mxCell id="0" />
        <mxCell id="1" parent="0" />
        <mxCell id="L6jIcue4Xip9Mwkje6IR-58" style="edgeStyle=orthogonalEdgeStyle;rounded=0;orthogonalLoop=1;jettySize=auto;html=1;exitX=0.5;exitY=1;exitDx=0;exitDy=0;exitPerimeter=0;entryX=0.5;entryY=0;entryDx=0;entryDy=0;entryPerimeter=0;" parent="1" source="L6jIcue4Xip9Mwkje6IR-56" target="L6jIcue4Xip9Mwkje6IR-57" edge="1">
          <mxGeometry relative="1" as="geometry" />
        </mxCell>
        <mxCell id="L6jIcue4Xip9Mwkje6IR-56" value="Start" style="strokeWidth=2;html=1;shape=mxgraph.flowchart.start_1;whiteSpace=wrap;" parent="1" vertex="1">
          <mxGeometry x="440" y="10" width="100" height="60" as="geometry" />
        </mxCell>
        <mxCell id="L6jIcue4Xip9Mwkje6IR-62" style="edgeStyle=orthogonalEdgeStyle;rounded=0;orthogonalLoop=1;jettySize=auto;html=1;exitX=0;exitY=0.5;exitDx=0;exitDy=0;exitPerimeter=0;entryX=1;entryY=0.5;entryDx=0;entryDy=0;" parent="1" source="L6jIcue4Xip9Mwkje6IR-57" target="L6jIcue4Xip9Mwkje6IR-60" edge="1">
          <mxGeometry relative="1" as="geometry" />
        </mxCell>
        <mxCell id="L6jIcue4Xip9Mwkje6IR-63" style="edgeStyle=orthogonalEdgeStyle;rounded=0;orthogonalLoop=1;jettySize=auto;html=1;exitX=1;exitY=0.5;exitDx=0;exitDy=0;exitPerimeter=0;entryX=0;entryY=0.5;entryDx=0;entryDy=0;" parent="1" source="L6jIcue4Xip9Mwkje6IR-57" target="L6jIcue4Xip9Mwkje6IR-61" edge="1">
          <mxGeometry relative="1" as="geometry" />
        </mxCell>
        <mxCell id="L6jIcue4Xip9Mwkje6IR-57" value="New User ?" style="strokeWidth=2;html=1;shape=mxgraph.flowchart.decision;whiteSpace=wrap;" parent="1" vertex="1">
          <mxGeometry x="440" y="100" width="100" height="100" as="geometry" />
        </mxCell>
        <mxCell id="L6jIcue4Xip9Mwkje6IR-68" style="edgeStyle=orthogonalEdgeStyle;rounded=0;orthogonalLoop=1;jettySize=auto;html=1;exitX=0.5;exitY=1;exitDx=0;exitDy=0;entryX=0.5;entryY=0;entryDx=0;entryDy=0;" parent="1" source="L6jIcue4Xip9Mwkje6IR-60" target="L6jIcue4Xip9Mwkje6IR-66" edge="1">
          <mxGeometry relative="1" as="geometry" />
        </mxCell>
        <mxCell id="L6jIcue4Xip9Mwkje6IR-60" value="Login" style="rounded=0;whiteSpace=wrap;html=1;" parent="1" vertex="1">
          <mxGeometry x="250" y="120" width="120" height="60" as="geometry" />
        </mxCell>
        <mxCell id="L6jIcue4Xip9Mwkje6IR-78" value="" style="edgeStyle=orthogonalEdgeStyle;rounded=0;orthogonalLoop=1;jettySize=auto;html=1;" parent="1" source="L6jIcue4Xip9Mwkje6IR-61" target="L6jIcue4Xip9Mwkje6IR-77" edge="1">
          <mxGeometry relative="1" as="geometry" />
        </mxCell>
        <mxCell id="L6jIcue4Xip9Mwkje6IR-61" value="Register" style="rounded=0;whiteSpace=wrap;html=1;" parent="1" vertex="1">
          <mxGeometry x="610" y="120" width="120" height="60" as="geometry" />
        </mxCell>
        <mxCell id="L6jIcue4Xip9Mwkje6IR-64" value="No" style="text;html=1;align=center;verticalAlign=middle;resizable=0;points=[];autosize=1;strokeColor=none;fillColor=none;" parent="1" vertex="1">
          <mxGeometry x="390" y="120" width="30" height="20" as="geometry" />
        </mxCell>
        <mxCell id="L6jIcue4Xip9Mwkje6IR-65" value="Yes" style="text;html=1;align=center;verticalAlign=middle;resizable=0;points=[];autosize=1;strokeColor=none;fillColor=none;" parent="1" vertex="1">
          <mxGeometry x="540" y="120" width="40" height="20" as="geometry" />
        </mxCell>
        <mxCell id="L6jIcue4Xip9Mwkje6IR-69" style="edgeStyle=orthogonalEdgeStyle;rounded=0;orthogonalLoop=1;jettySize=auto;html=1;exitX=0.5;exitY=1;exitDx=0;exitDy=0;entryX=0.5;entryY=0;entryDx=0;entryDy=0;entryPerimeter=0;" parent="1" source="L6jIcue4Xip9Mwkje6IR-66" target="L6jIcue4Xip9Mwkje6IR-67" edge="1">
          <mxGeometry relative="1" as="geometry" />
        </mxCell>
        <mxCell id="L6jIcue4Xip9Mwkje6IR-66" value="Input&lt;br&gt;Mobile Number&lt;br&gt;&amp;amp;&lt;br&gt;OTP" style="shape=parallelogram;perimeter=parallelogramPerimeter;whiteSpace=wrap;html=1;fixedSize=1;" parent="1" vertex="1">
          <mxGeometry x="250" y="230" width="120" height="60" as="geometry" />
        </mxCell>
        <mxCell id="L6jIcue4Xip9Mwkje6IR-70" style="edgeStyle=orthogonalEdgeStyle;rounded=0;orthogonalLoop=1;jettySize=auto;html=1;exitX=1;exitY=0.5;exitDx=0;exitDy=0;exitPerimeter=0;entryX=0.5;entryY=1;entryDx=0;entryDy=0;entryPerimeter=0;" parent="1" source="L6jIcue4Xip9Mwkje6IR-67" target="L6jIcue4Xip9Mwkje6IR-57" edge="1">
          <mxGeometry relative="1" as="geometry" />
        </mxCell>
        <mxCell id="L6jIcue4Xip9Mwkje6IR-73" style="edgeStyle=orthogonalEdgeStyle;rounded=0;orthogonalLoop=1;jettySize=auto;html=1;exitX=0.5;exitY=1;exitDx=0;exitDy=0;exitPerimeter=0;" parent="1" source="L6jIcue4Xip9Mwkje6IR-67" target="L6jIcue4Xip9Mwkje6IR-71" edge="1">
          <mxGeometry relative="1" as="geometry" />
        </mxCell>
        <mxCell id="L6jIcue4Xip9Mwkje6IR-67" value="User Exists ?" style="strokeWidth=2;html=1;shape=mxgraph.flowchart.decision;whiteSpace=wrap;" parent="1" vertex="1">
          <mxGeometry x="260" y="330" width="100" height="100" as="geometry" />
        </mxCell>
        <mxCell id="L6jIcue4Xip9Mwkje6IR-97" style="edgeStyle=orthogonalEdgeStyle;rounded=0;orthogonalLoop=1;jettySize=auto;html=1;exitX=0.5;exitY=1;exitDx=0;exitDy=0;entryX=0.5;entryY=0;entryDx=0;entryDy=0;entryPerimeter=0;" parent="1" source="L6jIcue4Xip9Mwkje6IR-71" target="L6jIcue4Xip9Mwkje6IR-96" edge="1">
          <mxGeometry relative="1" as="geometry" />
        </mxCell>
        <mxCell id="L6jIcue4Xip9Mwkje6IR-71" value="Login Successful" style="rounded=0;whiteSpace=wrap;html=1;" parent="1" vertex="1">
          <mxGeometry x="250" y="470" width="120" height="60" as="geometry" />
        </mxCell>
        <mxCell id="L6jIcue4Xip9Mwkje6IR-74" value="No" style="text;html=1;align=center;verticalAlign=middle;resizable=0;points=[];autosize=1;strokeColor=none;fillColor=none;" parent="1" vertex="1">
          <mxGeometry x="355" y="390" width="30" height="20" as="geometry" />
        </mxCell>
        <mxCell id="L6jIcue4Xip9Mwkje6IR-75" value="Yes" style="text;html=1;align=center;verticalAlign=middle;resizable=0;points=[];autosize=1;strokeColor=none;fillColor=none;" parent="1" vertex="1">
          <mxGeometry x="315" y="430" width="40" height="20" as="geometry" />
        </mxCell>
        <mxCell id="L6jIcue4Xip9Mwkje6IR-76" value="Landing Page&lt;br&gt;(Main Page)" style="rounded=0;whiteSpace=wrap;html=1;" parent="1" vertex="1">
          <mxGeometry x="440" y="580" width="120" height="60" as="geometry" />
        </mxCell>
        <mxCell id="L6jIcue4Xip9Mwkje6IR-81" style="edgeStyle=orthogonalEdgeStyle;rounded=0;orthogonalLoop=1;jettySize=auto;html=1;exitX=0.5;exitY=1;exitDx=0;exitDy=0;entryX=0.5;entryY=0;entryDx=0;entryDy=0;" parent="1" source="L6jIcue4Xip9Mwkje6IR-77" target="L6jIcue4Xip9Mwkje6IR-80" edge="1">
          <mxGeometry relative="1" as="geometry" />
        </mxCell>
        <mxCell id="L6jIcue4Xip9Mwkje6IR-77" value="&lt;ol&gt;&lt;li&gt;Title (drop down)&lt;/li&gt;&lt;li&gt;First Name (text)&lt;/li&gt;&lt;li&gt;Last Name (text)&lt;/li&gt;&lt;li&gt;Mobile Number (int 10 digit)&lt;/li&gt;&lt;li&gt;email id (text)&lt;/li&gt;&lt;li&gt;DOB (date picker)&lt;/li&gt;&lt;li&gt;PIN code (int 6 digit)&lt;/li&gt;&lt;li&gt;Security (captcha)&lt;/li&gt;&lt;li&gt;Agree conditions (checkbox)&lt;/li&gt;&lt;li&gt;Submit button&lt;/li&gt;&lt;/ol&gt;" style="whiteSpace=wrap;html=1;rounded=0;align=left;" parent="1" vertex="1">
          <mxGeometry x="565" y="220" width="210" height="150" as="geometry" />
        </mxCell>
        <mxCell id="L6jIcue4Xip9Mwkje6IR-83" style="edgeStyle=orthogonalEdgeStyle;rounded=0;orthogonalLoop=1;jettySize=auto;html=1;exitX=0.5;exitY=1;exitDx=0;exitDy=0;entryX=0.5;entryY=0;entryDx=0;entryDy=0;entryPerimeter=0;" parent="1" source="L6jIcue4Xip9Mwkje6IR-80" target="L6jIcue4Xip9Mwkje6IR-82" edge="1">
          <mxGeometry relative="1" as="geometry" />
        </mxCell>
        <mxCell id="L6jIcue4Xip9Mwkje6IR-80" value="Verify user using OTP" style="shape=parallelogram;perimeter=parallelogramPerimeter;whiteSpace=wrap;html=1;fixedSize=1;" parent="1" vertex="1">
          <mxGeometry x="595" y="420" width="150" height="40" as="geometry" />
        </mxCell>
        <mxCell id="L6jIcue4Xip9Mwkje6IR-84" style="edgeStyle=orthogonalEdgeStyle;rounded=0;orthogonalLoop=1;jettySize=auto;html=1;exitX=1;exitY=0.5;exitDx=0;exitDy=0;exitPerimeter=0;entryX=1;entryY=0.5;entryDx=0;entryDy=0;" parent="1" source="L6jIcue4Xip9Mwkje6IR-82" target="L6jIcue4Xip9Mwkje6IR-61" edge="1">
          <mxGeometry relative="1" as="geometry">
            <Array as="points">
              <mxPoint x="800" y="550" />
              <mxPoint x="800" y="150" />
            </Array>
          </mxGeometry>
        </mxCell>
        <mxCell id="L6jIcue4Xip9Mwkje6IR-95" style="edgeStyle=orthogonalEdgeStyle;rounded=0;orthogonalLoop=1;jettySize=auto;html=1;exitX=0.5;exitY=1;exitDx=0;exitDy=0;exitPerimeter=0;entryX=0.5;entryY=0;entryDx=0;entryDy=0;" parent="1" source="L6jIcue4Xip9Mwkje6IR-82" target="L6jIcue4Xip9Mwkje6IR-92" edge="1">
          <mxGeometry relative="1" as="geometry" />
        </mxCell>
        <mxCell id="L6jIcue4Xip9Mwkje6IR-82" value="User verified ?" style="strokeWidth=2;html=1;shape=mxgraph.flowchart.decision;whiteSpace=wrap;" parent="1" vertex="1">
          <mxGeometry x="620" y="500" width="100" height="100" as="geometry" />
        </mxCell>
        <mxCell id="L6jIcue4Xip9Mwkje6IR-85" value="No" style="text;html=1;align=center;verticalAlign=middle;resizable=0;points=[];autosize=1;strokeColor=none;fillColor=none;" parent="1" vertex="1">
          <mxGeometry x="725" y="520" width="30" height="20" as="geometry" />
        </mxCell>
        <mxCell id="L6jIcue4Xip9Mwkje6IR-88" value="Yes" style="text;html=1;align=center;verticalAlign=middle;resizable=0;points=[];autosize=1;strokeColor=none;fillColor=none;" parent="1" vertex="1">
          <mxGeometry x="690" y="600" width="40" height="20" as="geometry" />
        </mxCell>
        <mxCell id="L6jIcue4Xip9Mwkje6IR-92" value="C" style="ellipse;whiteSpace=wrap;html=1;aspect=fixed;" parent="1" vertex="1">
          <mxGeometry x="650" y="630" width="40" height="40" as="geometry" />
        </mxCell>
        <mxCell id="L6jIcue4Xip9Mwkje6IR-94" style="edgeStyle=orthogonalEdgeStyle;rounded=0;orthogonalLoop=1;jettySize=auto;html=1;exitX=1;exitY=0.5;exitDx=0;exitDy=0;entryX=0;entryY=0.5;entryDx=0;entryDy=0;" parent="1" source="L6jIcue4Xip9Mwkje6IR-93" target="L6jIcue4Xip9Mwkje6IR-60" edge="1">
          <mxGeometry relative="1" as="geometry" />
        </mxCell>
        <mxCell id="L6jIcue4Xip9Mwkje6IR-93" value="C" style="ellipse;whiteSpace=wrap;html=1;aspect=fixed;" parent="1" vertex="1">
          <mxGeometry x="150" y="130" width="40" height="40" as="geometry" />
        </mxCell>
        <mxCell id="L6jIcue4Xip9Mwkje6IR-98" style="edgeStyle=orthogonalEdgeStyle;rounded=0;orthogonalLoop=1;jettySize=auto;html=1;exitX=1;exitY=0.5;exitDx=0;exitDy=0;exitPerimeter=0;entryX=0;entryY=0.5;entryDx=0;entryDy=0;" parent="1" source="L6jIcue4Xip9Mwkje6IR-96" target="L6jIcue4Xip9Mwkje6IR-76" edge="1">
          <mxGeometry relative="1" as="geometry" />
        </mxCell>
        <mxCell id="L6jIcue4Xip9Mwkje6IR-102" style="edgeStyle=orthogonalEdgeStyle;rounded=0;orthogonalLoop=1;jettySize=auto;html=1;exitX=0.5;exitY=1;exitDx=0;exitDy=0;exitPerimeter=0;entryX=0.5;entryY=0;entryDx=0;entryDy=0;" parent="1" source="L6jIcue4Xip9Mwkje6IR-96" target="L6jIcue4Xip9Mwkje6IR-100" edge="1">
          <mxGeometry relative="1" as="geometry" />
        </mxCell>
        <mxCell id="L6jIcue4Xip9Mwkje6IR-96" value="is first time&lt;br&gt;login ?" style="strokeWidth=2;html=1;shape=mxgraph.flowchart.decision;whiteSpace=wrap;" parent="1" vertex="1">
          <mxGeometry x="260" y="560" width="100" height="100" as="geometry" />
        </mxCell>
        <mxCell id="L6jIcue4Xip9Mwkje6IR-99" value="No" style="text;html=1;align=center;verticalAlign=middle;resizable=0;points=[];autosize=1;strokeColor=none;fillColor=none;" parent="1" vertex="1">
          <mxGeometry x="365" y="580" width="30" height="20" as="geometry" />
        </mxCell>
        <mxCell id="L6jIcue4Xip9Mwkje6IR-103" style="edgeStyle=orthogonalEdgeStyle;rounded=0;orthogonalLoop=1;jettySize=auto;html=1;entryX=0.5;entryY=1;entryDx=0;entryDy=0;" parent="1" source="L6jIcue4Xip9Mwkje6IR-100" target="L6jIcue4Xip9Mwkje6IR-76" edge="1">
          <mxGeometry relative="1" as="geometry" />
        </mxCell>
        <mxCell id="L6jIcue4Xip9Mwkje6IR-100" value="Edit Profile:&lt;br&gt;&lt;ol&gt;&lt;li&gt;Vehicle No.&lt;/li&gt;&lt;li&gt;Gender&lt;/li&gt;&lt;li&gt;Address (2 rows text field)&lt;/li&gt;&lt;li&gt;Save button&lt;/li&gt;&lt;/ol&gt;" style="rounded=0;whiteSpace=wrap;html=1;align=left;" parent="1" vertex="1">
          <mxGeometry x="207.5" y="690" width="205" height="100" as="geometry" />
        </mxCell>
      </root>
    </mxGraphModel>
  </diagram>
</mxfile>
